<?xml version="1.0" encoding="utf-8"?>
<svg width="128.00002" height="127.99999" viewBox="0 0 33.866671 33.866665" version="1.1" id="svg1" xmlns="http://www.w3.org/2000/svg" xmlns:bx="https://boxy-svg.com" preserveAspectRatio="none"><defs id="defs1"><bx:export><bx:file format="svg" path="lotus, flower, floral, spa.svg"/></bx:export></defs><g id="Layer_1" transform="matrix(0.659188, 0, 0, 0.658461, -1.883036, 4.601006)" style=""><title>lotus, flower, floral, spa</title><path class="cls-1" d="M 28.474 18.729 C 28.79 14.319 31.112 10.298 34.774 7.819 C 34.774 7.479 34.774 7.129 34.774 6.819 C 34.798 2.021 32.437 -2.476 28.474 -5.181 C 24.495 -2.485 22.119 2.013 22.134 6.819 C 22.134 7.169 22.134 7.519 22.134 7.819 C 25.811 10.289 28.148 14.312 28.474 18.729 Z" style="fill: rgb(242, 163, 94); stroke-width: 1;"/><path class="cls-1" d="M 28.474 18.729 C 28.158 23.139 25.836 27.161 22.174 29.639 C 22.174 29.979 22.174 30.329 22.174 30.639 C 22.159 35.445 24.535 39.943 28.514 42.639 C 32.493 39.943 34.869 35.445 34.854 30.639 C 34.854 30.289 34.854 29.939 34.854 29.639 C 31.162 27.178 28.809 23.154 28.474 18.729 Z" style="fill: rgb(242, 163, 94); stroke-width: 1;"/><path class="cls-1" d="M 28.474 18.729 C 24.816 16.248 22.495 12.228 22.174 7.819 C 21.894 7.629 21.594 7.439 21.294 7.259 C 17.143 4.864 12.074 4.684 7.764 6.779 C 8.107 11.557 10.802 15.852 14.954 18.239 C 15.254 18.419 15.564 18.579 15.874 18.729 C 19.852 16.799 24.496 16.799 28.474 18.729 Z" style="fill: rgb(242, 163, 94); stroke-width: 1;"/><path class="cls-2" d="M 28.474 18.729 C 28.158 14.319 25.836 10.298 22.174 7.819 C 22.495 12.228 24.816 16.248 28.474 18.729 Z" style="fill: rgb(226, 218, 213); stroke-width: 1;"/><path class="cls-1" d="M 41.994 19.219 C 41.694 19.039 41.384 18.879 41.074 18.729 C 37.096 20.66 32.452 20.66 28.474 18.729 C 32.132 21.211 34.453 25.23 34.774 29.639 C 35.054 29.829 35.354 30.019 35.654 30.199 C 39.797 32.61 44.866 32.809 49.184 30.729 C 48.857 25.933 46.16 21.616 41.994 19.219 Z" style="fill: rgb(242, 163, 94); stroke-width: 1;"/><path class="cls-2" d="M 28.474 18.729 C 28.79 23.139 31.112 27.161 34.774 29.639 C 34.453 25.23 32.132 21.211 28.474 18.729 Z" style="fill: rgb(226, 218, 213); stroke-width: 1;"/><path class="cls-1" d="M 28.474 18.729 C 24.496 20.66 19.852 20.66 15.874 18.729 C 15.564 18.879 15.254 19.039 14.954 19.219 C 10.788 21.616 8.091 25.933 7.764 30.729 C 12.074 32.824 17.143 32.644 21.294 30.249 C 21.594 30.069 21.894 29.879 22.174 29.689 C 22.48 25.262 24.803 21.221 28.474 18.729 Z" style="fill: rgb(242, 163, 94); stroke-width: 1;"/><path class="cls-2" d="M 28.474 18.729 C 24.816 21.211 22.495 25.23 22.174 29.639 C 25.836 27.161 28.158 23.139 28.474 18.729 Z" style="fill: rgb(226, 218, 213); stroke-width: 1;"/><path class="cls-2" d="M 28.474 18.729 C 24.496 16.799 19.852 16.799 15.874 18.729 C 19.852 20.66 24.496 20.66 28.474 18.729 Z" style="fill: rgb(226, 218, 213); stroke-width: 1;"/><path class="cls-1" d="M 28.474 18.729 C 32.452 16.799 37.096 16.799 41.074 18.729 C 41.384 18.579 41.694 18.419 41.994 18.239 C 46.146 15.852 48.841 11.557 49.184 6.779 C 44.874 4.684 39.805 4.864 35.654 7.259 C 35.354 7.439 35.054 7.629 34.774 7.819 C 34.453 12.228 32.132 16.248 28.474 18.729 Z" style="fill: rgb(242, 163, 94); stroke-width: 1;"/><path class="cls-2" d="M 28.474 18.729 C 32.132 16.248 34.453 12.228 34.774 7.819 C 31.112 10.298 28.79 14.319 28.474 18.729 Z" style="fill: rgb(226, 218, 213); stroke-width: 1;"/><path class="cls-2" d="M 28.474 18.729 C 32.452 20.66 37.096 20.66 41.074 18.729 C 37.096 16.799 32.452 16.799 28.474 18.729 Z" style="fill: rgb(226, 218, 213); stroke-width: 1;"/></g><g id="layer1" transform="matrix(1, 0, 0, 1, -32.325826, -138.641653)" style="visibility: hidden;"><circle cx="49.212509" cy="155.575" r="15.743801" id="circle2892" style="display:inline;opacity:0.2;fill:none;fill-opacity:1;stroke:currentColor;stroke-width:0.2619375;stroke-linecap:butt;stroke-linejoin:miter;stroke-miterlimit:4;stroke-dasharray:none;stroke-dashoffset:0;stroke-opacity:1;marker:none;marker-start:none;marker-mid:none;marker-end:none;paint-order:normal;enable-background:new"/><rect ry="2.096508" rx="2.096508" y="141.94769" x="35.585205" height="27.254602" width="27.254602" id="rect2896" style="display:inline;opacity:0.2;fill:none;fill-opacity:1;stroke:currentColor;stroke-width:0.2619375;stroke-linecap:butt;stroke-linejoin:miter;stroke-miterlimit:4;stroke-dasharray:none;stroke-dashoffset:0;stroke-opacity:1;marker:none;marker-start:none;marker-mid:none;marker-end:none;paint-order:normal;enable-background:new"/></g></svg>